<?xml version="1.0" encoding="UTF-8"?>
<svg width="640" height="640" viewBox="0 0 640 640" fill="none" xmlns="http://www.w3.org/2000/svg">
  <defs>
    <linearGradient id="g" x1="0" y1="0" x2="1" y2="1">
      <stop offset="0" stop-color="#123B74"/>
      <stop offset="1" stop-color="#1FA6E0"/>
    </linearGradient>
  </defs>
  <!-- Outer circle (C) -->
  <circle cx="320" cy="320" r="300" fill="none" stroke="#0B1E3A" stroke-width="40"/>
  <!-- "C" opening -->
  <rect x="510" y="180" width="120" height="280" fill="white"/>
  <!-- Inner ring to give premium feel -->
  <circle cx="320" cy="320" r="250" fill="none" stroke="url(#g)" stroke-width="18"/>
  <!-- Stylized D -->
  <path d="M210,170 L260,170 C370,170 430,250 430,320 C430,390 370,470 260,470 L210,470 Z
           M260,220 L260,420 C340,420 380,360 380,320 C380,280 340,220 260,220 Z" fill="#123B74"/>
  <!-- Geometric A (center) -->
  <path d="M320,210 L390,430 L350,430 L330,370 L310,370 L290,430 L250,430 L320,210 Z
           M310,330 L330,330 L320,300 Z" fill="#1FA6E0"/>
</svg>